<?xml version="1.0" ?><svg height="512" preserveAspectRatio="xMidYMid" viewBox="0 0 512 512" width="512" xmlns="http://www.w3.org/2000/svg" xmlns:xlink="http://www.w3.org/1999/xlink"><defs><style>
      .cls-1 {
        fill: #000;
        fill-rule: evenodd;
      }
    </style></defs><path class="cls-1" d="M256.000,512.000 C114.615,512.000 0.000,397.385 0.000,256.000 C0.000,114.615 114.615,0.000 256.000,0.000 C397.385,0.000 512.000,114.615 512.000,256.000 C512.000,397.385 397.385,512.000 256.000,512.000 ZM343.618,127.857 C311.086,127.857 285.618,155.045 274.602,199.794 C286.602,193.384 308.383,190.027 310.094,212.401 C311.805,234.777 281.711,292.652 268.477,292.652 C255.273,292.652 245.493,227.222 242.055,197.294 C238.626,167.357 232.508,136.929 207.555,136.929 C182.571,136.929 150.524,178.563 128.000,198.687 L139.750,216.857 C139.750,216.857 156.398,202.044 162.274,203.179 C177.462,207.634 190.430,277.294 197.031,303.857 C203.625,330.428 211.696,384.143 244.273,384.143 C296.875,384.143 384.000,236.741 384.000,188.616 C384.000,157.027 376.164,127.857 343.618,127.857 Z"/></svg>